<svg xmlns="http://www.w3.org/2000/svg" width="200" height="200" viewBox="0 0 200 200" fill="none">
<rect width="200" height="200" fill="#FEFFFE"/>
<path d="M 119.77,31.62 C 115.78,20.42 111.09,5.58 102.98,5.03 C 97.87,4.68 92.28,6.76 88.78,8.78 C 80.71,13.29 75.73,23.73 72.65,30.23 C 69.81,36.35 68.03,42.09 68.41,47.63 C 68.72,52.22 71.24,52.06 73.27,51.52 C 75.22,50.99 76.28,50.69 77.38,49.7 C 75.93,56.13 72.27,66.72 68.51,76.61 C 62.19,93.42 60.24,106.73 58.12,126.02 C 57.28,133.97 56.31,143.29 54.17,150.38 C 52.84,155.13 50.47,162.71 50.79,168.12 C 50.94,170.93 52.32,171.78 53.16,169.19 C 54.32,165.61 53.81,162.71 56.31,157.81 C 58.65,153.21 71.91,129.49 77.71,118.54 C 80.19,113.91 88.76,89.89 92.81,80.01 C 91.96,88.17 92.47,96.88 92.81,101.96 C 93.41,110.89 93.92,119.21 94.79,132.08 C 95.06,136.28 97.73,139.28 99.76,139.36 C 103.71,139.51 111.91,128.92 116.41,116.36 C 121.06,103.34 121.62,95.87 122.78,75.35 C 122.84,74.48 122.71,73.78 122.71,73.1 C 122.86,72.82 122.99,72.29 122.99,71.42 L 123.12,63.34 C 123.27,62.91 123.42,62.23 123.42,61.43 L 123.61,48.74 C 122.61,46.26 122.69,41.74 121.01,35.84 C 121.91,37.11 122.21,39.11 121.41,36.45 C 120.61,33.78 120.18,32.18 119.77,31.62 Z M 122.21,49.14 L 122.06,52.92 V 60.93 L 121.76,62.61 V 73.05 L 121.41,74.13 C 120.46,84.01 118.73,99.78 117.13,106.95 C 114.17,119.97 107.08,136.38 101.67,136.31 C 98.27,136.26 97.23,134.31 96.62,128.14 C 95.68,117.86 95.17,93.81 95.47,82.94 C 95.72,73.98 96.91,67.81 98.64,59.03 C 96.78,59.21 95.62,63.89 93.59,68.91 C 91.26,74.93 66.79,124.28 57.38,149.32 C 59.86,139.74 60.47,130.42 62.19,119.07 C 64.72,103.14 67.92,92.81 71.41,81.01 C 74.01,72.34 76.98,62.06 78.71,54.02 C 78.86,53.27 78.58,52.01 78.71,51.01 C 78.86,49.95 78.81,48.99 78.61,48.09 C 78.76,47.49 78.81,46.81 78.76,46.21 C 79.16,44.03 80.11,38.16 81.49,30.05 C 82.05,26.62 82.7,25.21 84.38,24.06 C 82.15,23.76 81.24,25.61 80.44,30.21 C 79.44,36.09 78.28,41.94 77.63,46.74 C 76.93,47.69 76.13,48.24 74.72,48.24 C 72.19,48.24 70.69,47.74 70.84,43.6 C 71.09,37.05 77.71,22.02 85.78,12.94 C 90.28,8.02 97.08,6.49 101.52,6.29 C 109.99,5.89 114.73,15.62 120.08,32.38 C 120.69,34.36 121.29,33.98 122.21,40.41 V 40.71 L 122.51,42.62 L 122.81,45.91 L 122.21,49.14 Z" fill="black"/>
<path d="M 86.11,34.64 C 86.36,33.68 89.22,33.33 89.92,33.88 C 90.83,34.59 90.83,37.8 90.03,38.81 C 88.72,40.49 86.39,42.72 85.23,43.12 C 84.63,42.67 87.87,39.19 88.62,37.9 C 89.22,36.85 88.82,35.04 87.72,35.44 C 86.91,35.74 87.31,37.1 87.21,37.9 C 87.06,38.91 85.61,38.81 85.71,37.7 C 85.76,36.9 85.81,35.79 86.11,34.64 Z" fill="black"/>
<path d="M 101.22,37.6 C 102.68,37.35 104.28,36.55 105.69,37.1 C 107.2,37.7 107.6,39.61 106.65,41.52 C 105.84,43.22 103.91,43.88 103.51,43.73 C 102.91,43.48 102.96,42.52 103.66,42.07 C 104.61,41.42 105.92,39.71 104.92,38.91 C 104.11,38.26 102.18,39.31 101.02,39.41 C 99.91,39.51 99.56,37.9 101.22,37.6 Z" fill="black"/>
<path d="M 97.23,142.27 C 96.02,142.32 96.12,143.93 95.32,147.11 C 93.91,153.09 89.77,168.97 89.72,170.02 C 89.67,170.98 90.38,170.63 90.88,170.02 C 92.24,168.27 95.42,164.08 96.53,163.22 C 95.47,164.73 92.69,168.87 91.23,170.68 C 90.63,171.43 89.02,171.08 88.62,172.49 C 89.12,173.14 90.43,172.34 91.94,171.63 C 93.81,170.73 94.51,170.73 95.32,171.99 C 95.72,172.59 96.12,173.49 95.82,173.84 C 95.17,173.69 95.12,173.29 94.82,173.39 C 94.31,173.64 96.02,176.31 97.73,178.12 C 95.62,181.18 93.91,188.94 94.61,194.1 C 94.82,195.61 96.93,196.06 96.78,194.5 C 96.12,193.95 96.07,193.6 96.22,191.94 C 96.68,187.02 97.94,183.44 99.81,179.72 C 102.13,181.73 105.72,182.49 109.16,182.38 C 110.67,182.33 110.72,180.28 109.41,179.93 C 106.47,179.07 101.02,178.07 98.09,175.25 C 97.28,174.5 97.03,173.19 96.33,172.39 C 95.12,170.98 94.61,170.63 92.75,171.23 C 91.14,171.78 90.08,171.78 89.02,172.49 C 87.06,173.84 82.22,177.52 80.81,178.32 C 78.78,179.47 76.75,182.99 77.01,183.79 C 77.41,184.85 80.19,183.34 81.49,182.79 C 83.92,181.73 86.26,180.63 86.81,179.02 C 85.05,179.82 82.22,181.48 80.09,182.18 C 78.23,182.84 78.63,181.73 79.44,180.53 C 80.79,178.42 87.11,173.19 89.22,172.14 C 90.93,171.28 91.74,170.73 92.44,168.52 C 93.91,163.98 97.23,146.91 97.84,144.25 C 98.14,143.05 98.19,142.24 97.23,142.27 Z" fill="black"/>
<path d="M 111.89,137.25 C 110.33,137.5 109.73,141.79 111.89,145.71 C 114.12,149.95 123.22,163.12 125.75,167.16 C 122.71,168.12 118.72,175.86 117.26,182.08 C 116.91,183.64 117.81,183.34 118.01,182.49 C 119.02,179.93 122.61,170.08 127.06,169.02 C 128.16,170.63 129.77,172.49 130.68,173.29 C 131.38,172.89 133.61,171.73 136.49,170.98 C 141.19,169.67 145.78,168.02 147.91,163.73 C 148.72,161.92 148.21,161.52 147.61,162.72 C 145.58,166.06 142.7,167.72 136.79,168.92 C 134.76,169.37 132.43,169.72 130.93,170.03 C 126.78,165.23 116.25,150.6 113.72,146.31 C 111.39,142.34 111.24,140.74 112.45,137.6 C 112.7,136.9 112.45,137.05 111.89,137.25 Z" fill="black"/>
<path d="M 133.2,175.4 C 132.24,175.4 132.29,182.53 133.3,188.66 C 133.85,192.34 134.86,193.19 136.89,192.94 C 138.92,192.69 139.42,191.19 139.72,189.43 C 138.21,189.73 136.91,189.43 135.75,187.22 C 134.2,184.1 134.15,177.72 133.2,175.4 Z" fill="black"/>
</svg>